{"asset":{"generator":"source/ur-dice/generate.py; geometry from tokens D4","version":"2.0"},"scene":0,"scenes":[{"name":"Scene","nodes":[0]}],"nodes":[{"mesh":0,"name":"Ur die","scale":[0.016,0.016,0.016]}],"materials":[{"name":"Black die","pbrMetallicRoughness":{"baseColorFactor":[0.009,0.009,0.009,1],"metallicFactor":0,"roughnessFactor":0.38}},{"name":"White corner circles","pbrMetallicRoughness":{"baseColorFactor":[1,1,1,1],"metallicFactor":0,"roughnessFactor":0.55}}],"meshes":[{"name":"Beveled D4 with two marked corners","primitives":[{"attributes":{"POSITION":0,"NORMAL":1,"TEXCOORD_0":2},"indices":3,"material":0},{"attributes":{"POSITION":4,"NORMAL":5},"indices":6,"material":1}]}],"accessors":[{"bufferView":0,"componentType":5126,"count":108,"max":[0.7968528270721436,0.7990608215332031,0.4774247407913208],"min":[-0.7968528270721436,-0.6000000238418579,-0.9127622842788696],"type":"VEC3"},{"bufferView":1,"componentType":5126,"count":108,"type":"VEC3"},{"bufferView":2,"componentType":5126,"count":108,"type":"VEC2"},{"bufferView":3,"componentType":5123,"count":444,"type":"SCALAR"},{"bufferView":4,"componentType":5126,"count":294,"type":"VEC3","min":[-0.15878583621964854,-0.6010000238418579,-0.1330156921172686],"max":[0.68069829547467,0.5722084147320301,0.4590414336912056]},{"bufferView":5,"componentType":5126,"count":294,"type":"VEC3","min":[-0.8215838102589599,-1.0,-0.47434168242990493],"max":[0.8215838473351987,0.3162277834566989,0.94868330270322]},{"bufferView":6,"componentType":5123,"count":864,"type":"SCALAR"}],"bufferViews":[{"buffer":0,"byteLength":1296,"byteOffset":0},{"buffer":0,"byteLength":1296,"byteOffset":1296},{"buffer":0,"byteLength":864,"byteOffset":2592},{"buffer":0,"byteLength":888,"byteOffset":3456},{"buffer":0,"byteOffset":4344,"byteLength":3528,"target":34962},{"buffer":0,"byteOffset":7872,"byteLength":3528,"target":34962},{"buffer":0,"byteOffset":11400,"byteLength":1728,"target":34963}],"buffers":[{"byteLength":13128,"uri":"data:application/octet-stream;base64,"}]}
