{
  "asset": {
    "generator": "Khronos glTF Blender I/O v3.2.43",
    "version": "2.0"
  },
  "scene": 0,
  "scenes": [
    {
      "name": "Scene",
      "nodes": [
        0
      ]
    }
  ],
  "nodes": [
    {
      "mesh": 0,
      "name": "d4"
    }
  ],
  "materials": [
    {
      "name": "D4 geometry basis",
      "pbrMetallicRoughness": {
        "metallicFactor": 0,
        "roughnessFactor": 0.5
      }
    }
  ],
  "meshes": [
    {
      "name": "Cylinder",
      "primitives": [
        {
          "attributes": {
            "POSITION": 0,
            "NORMAL": 1,
            "TEXCOORD_0": 2
          },
          "indices": 3,
          "material": 0
        }
      ]
    }
  ],
  "accessors": [
    {
      "bufferView": 0,
      "componentType": 5126,
      "count": 108,
      "max": [
        0.7968528270721436,
        0.7990608215332031,
        0.4774247407913208
      ],
      "min": [
        -0.7968528270721436,
        -0.6000000238418579,
        -0.9127622842788696
      ],
      "type": "VEC3"
    },
    {
      "bufferView": 1,
      "componentType": 5126,
      "count": 108,
      "type": "VEC3"
    },
    {
      "bufferView": 2,
      "componentType": 5126,
      "count": 108,
      "type": "VEC2"
    },
    {
      "bufferView": 3,
      "componentType": 5123,
      "count": 444,
      "type": "SCALAR"
    }
  ],
  "bufferViews": [
    {
      "buffer": 0,
      "byteLength": 1296,
      "byteOffset": 0
    },
    {
      "buffer": 0,
      "byteLength": 1296,
      "byteOffset": 1296
    },
    {
      "buffer": 0,
      "byteLength": 864,
      "byteOffset": 2592
    },
    {
      "buffer": 0,
      "byteLength": 888,
      "byteOffset": 3456
    }
  ],
  "buffers": [
    {
      "byteLength": 4344,
      "uri": "d4.bin"
    }
  ]
}
